<svg width="24" height="24" viewBox="0 0 24 24" fill="none" xmlns="http://www.w3.org/2000/svg">
<path d="M23.6698 9.56005L21.6698 7.74005L13.9998 0.780046C13.4498 0.288091 12.7377 0.0161133 11.9998 0.0161133C11.2618 0.0161133 10.5498 0.288091 9.99977 0.780046L2.34977 7.78005L0.349774 9.60005C0.2151 9.7367 0.122579 9.9092 0.0832487 10.097C0.0439184 10.2848 0.0594395 10.4799 0.12796 10.6591C0.196481 10.8383 0.315109 10.994 0.469691 11.1077C0.624274 11.2213 0.808286 11.2881 0.999775 11.3C1.25306 11.2886 1.49255 11.1814 1.66977 11L1.99977 10.7V21C1.99977 21.7957 2.31585 22.5588 2.87845 23.1214C3.44106 23.684 4.20412 24 4.99977 24H18.9998C19.7954 24 20.5585 23.684 21.1211 23.1214C21.6837 22.5588 21.9998 21.7957 21.9998 21V10.74L22.3298 11.04C22.5132 11.2067 22.7519 11.2994 22.9998 11.3C23.2014 11.2995 23.3981 11.2381 23.5642 11.1237C23.7303 11.0094 23.8579 10.8475 23.9304 10.6594C24.0028 10.4712 24.0167 10.2656 23.9702 10.0694C23.9237 9.8732 23.819 9.69566 23.6698 9.56005Z" fill="#C6C6C6"/>
</svg>
