<svg width="26" height="32" viewBox="0 0 26 32" fill="none" xmlns="http://www.w3.org/2000/svg">
<path d="M21.8375 12.4249C20.9854 11.562 20.0077 10.8329 18.9375 10.2624C18.6576 10.1058 18.3697 9.96396 18.075 9.8374C17.4808 9.56869 16.8664 9.34718 16.2375 9.1749L15.6375 9.0374C15.2 8.9499 14.775 8.8874 14.3875 8.8374H13.8H13.5C13.1796 8.81266 12.8579 8.81266 12.5375 8.8374H12.2625H11.8H11.625C11.2048 8.87348 10.7873 8.93611 10.375 9.0249L9.7875 9.1624C9.16405 9.33403 8.55408 9.55129 7.9625 9.8124C7.6625 9.9499 7.3625 10.0874 7.0875 10.2374C5.09664 11.3062 3.43272 12.8947 2.27275 14.8338C1.11278 16.773 0.500141 18.9903 0.5 21.2499V24.9999C0.5 26.6575 1.15848 28.2472 2.33058 29.4193C3.50269 30.5914 5.0924 31.2499 6.75 31.2499H19.25C20.9076 31.2499 22.4973 30.5914 23.6694 29.4193C24.8415 28.2472 25.5 26.6575 25.5 24.9999V21.2499C25.5077 19.6092 25.1876 17.9835 24.5587 16.4681C23.9298 14.9526 23.0046 13.5781 21.8375 12.4249ZM12.375 18.7499H13.625C14.4538 18.667 15.2816 18.9168 15.9262 19.4442C16.5709 19.9717 16.9796 20.7336 17.0625 21.5624C17.1454 22.3912 16.8956 23.219 16.3682 23.8636C15.8407 24.5083 15.0788 24.917 14.25 24.9999C14.25 25.3314 14.1183 25.6494 13.8839 25.8838C13.6495 26.1182 13.3315 26.2499 13 26.2499C12.6685 26.2499 12.3505 26.1182 12.1161 25.8838C11.8817 25.6494 11.75 25.3314 11.75 24.9999H10.5C10.1685 24.9999 9.85054 24.8682 9.61612 24.6338C9.3817 24.3994 9.25 24.0814 9.25 23.7499C9.25 23.4184 9.3817 23.1004 9.61612 22.866C9.85054 22.6316 10.1685 22.4999 10.5 22.4999H13.625C13.7908 22.4999 13.9497 22.4341 14.0669 22.3168C14.1842 22.1996 14.25 22.0407 14.25 21.8749C14.25 21.7091 14.1842 21.5502 14.0669 21.433C13.9497 21.3158 13.7908 21.2499 13.625 21.2499H12.375C11.6 21.2507 10.8524 20.9635 10.2773 20.444C9.70217 19.9246 9.34056 19.21 9.26268 18.439C9.1848 17.6679 9.39619 16.8954 9.85582 16.2715C10.3155 15.6475 10.9905 15.2166 11.75 15.0624V14.9999C11.75 14.6684 11.8817 14.3504 12.1161 14.116C12.3505 13.8816 12.6685 13.7499 13 13.7499C13.3315 13.7499 13.6495 13.8816 13.8839 14.116C14.1183 14.3504 14.25 14.6684 14.25 14.9999H15.5C15.8315 14.9999 16.1495 15.1316 16.3839 15.366C16.6183 15.6004 16.75 15.9184 16.75 16.2499C16.75 16.5814 16.6183 16.8994 16.3839 17.1338C16.1495 17.3682 15.8315 17.4999 15.5 17.4999H12.375C12.2092 17.4999 12.0503 17.5658 11.9331 17.683C11.8158 17.8002 11.75 17.9591 11.75 18.1249C11.75 18.2907 11.8158 18.4496 11.9331 18.5668C12.0503 18.6841 12.2092 18.7499 12.375 18.7499Z" fill="#00A86B"/>
<path d="M19.8249 4.51231L19.3374 7.66231L19.0999 7.49981C18.4053 7.18413 17.6863 6.92496 16.9499 6.72481C15.6599 6.3931 14.3318 6.23338 12.9999 6.24981C11.6662 6.25413 10.3385 6.43059 9.04993 6.77481C8.32286 6.97856 7.61246 7.23765 6.92493 7.54981L6.66243 7.67481L6.17493 4.51231C6.0747 3.85874 6.14905 3.1903 6.39046 2.57473C6.63186 1.95917 7.03174 1.41838 7.54953 1.00718C8.06733 0.59599 8.68465 0.329016 9.33889 0.233326C9.99314 0.137637 10.6611 0.216634 11.2749 0.46231L12.5249 0.96231C12.8219 1.08059 13.1529 1.08059 13.4499 0.96231L14.6999 0.46231C15.3138 0.216634 15.9817 0.137637 16.636 0.233326C17.2902 0.329016 17.9075 0.59599 18.4253 1.00718C18.9431 1.41838 19.343 1.95917 19.5844 2.57473C19.8258 3.1903 19.9002 3.85874 19.7999 4.51231H19.8249Z" fill="#00A86B"/>
</svg>
